<svg xmlns="http://www.w3.org/2000/svg" viewBox="0 0 512 512">
  <defs>
    <linearGradient id="ocean" x1="72" y1="52" x2="440" y2="466" gradientUnits="userSpaceOnUse">
      <stop offset="0" stop-color="#1684ad"/>
      <stop offset="0.52" stop-color="#0b668f"/>
      <stop offset="1" stop-color="#06435f"/>
    </linearGradient>
    <linearGradient id="fin" x1="130" y1="167" x2="387" y2="361" gradientUnits="userSpaceOnUse">
      <stop offset="0" stop-color="#ffffff"/>
      <stop offset="1" stop-color="#dceef6"/>
    </linearGradient>
    <filter id="shadow" x="-20%" y="-20%" width="140%" height="140%">
      <feDropShadow dx="0" dy="12" stdDeviation="14" flood-color="#052f44" flood-opacity="0.28"/>
    </filter>
  </defs>

  <rect x="28" y="28" width="456" height="456" rx="108" fill="url(#ocean)"/>
  <path d="M92 132C160 78 306 70 410 127" fill="none" stroke="#7fc4db" stroke-width="8" stroke-linecap="round" opacity="0.38"/>

  <g filter="url(#shadow)">
    <path
      d="M91 297C132 217 214 170 345 166C322 187 309 211 306 237C347 241 385 258 420 289C358 288 315 305 288 340C221 361 155 347 91 297Z"
      fill="url(#fin)"
    />
    <path
      d="M153 288C188 238 233 209 290 201C270 232 269 263 286 294C235 310 191 308 153 288Z"
      fill="#0b668f"
    />
    <path
      d="M96 297C153 327 217 336 288 340C221 361 155 347 91 297Z"
      fill="#b8dce9"
      opacity="0.78"
    />
  </g>

  <g fill="none" stroke="#73d6c9" stroke-width="13" stroke-linecap="round" stroke-linejoin="round">
    <path d="M326 207V143"/>
    <path d="M326 143L374 114"/>
    <path d="M326 143L281 112"/>
  </g>
  <g fill="#ffffff" stroke="#73d6c9" stroke-width="10">
    <circle cx="326" cy="207" r="13"/>
    <circle cx="374" cy="114" r="13"/>
    <circle cx="281" cy="112" r="13"/>
  </g>
</svg>
